# xmcd
#
# Track frame offsets: 
#        150
#        17024
#        46529
#        67187
#        83366
#        101416
#        124846
#        144633
#        159360
#        181037
#        214117
#        239458
#        252635
#        270617
#        287336
#        305936
#        325455
#
# Disc length: 4662 seconds
#
# Revision: 0
# Processed by: cddbd v1.5.2PL0 Copyright (c) Steve Scherf et al.
# Submitted via: ExactAudioCopy v1.1
#
DISCID=ee123411
DTITLE=Nujabes - Kei Nishikori Meets Nujabes
DYEAR=2016
DGENRE=Hip-Hop
TTITLE0=Another Reflection
TTITLE1=Spiritual State feat. Uyama Hiroto
TTITLE2=Shing02 - Luv(sic) Part 2
TTITLE3=The Final View
TTITLE4=A Day By Atmosphere Supreme
TTITLE5=Nujabes feat. Shing02 - Luv(sic) Part 4
TTITLE6=Beat Laments The World
TTITLE7=City Lights feat. Pase Rock and Substantial
TTITLE8=Shing02 - Luv(sic)
TTITLE9=Horizon
TTITLE10=Nujabes feat. Shing02 - Luv(sic)  Part 3
TTITLE11=Feather feat. Cise Starr and Akin
TTITLE12=Matt Cab - Searching For You
TTITLE13=Spiral
TTITLE14=Counting Stars
TTITLE15=Reflection Eternal
TTITLE16=Flowers - After Hanabi -listen to my beats-
EXTD=
EXTT0=
EXTT1=
EXTT2=
EXTT3=
EXTT4=
EXTT5=
EXTT6=
EXTT7=
EXTT8=
EXTT9=
EXTT10=
EXTT11=
EXTT12=
EXTT13=
EXTT14=
EXTT15=
EXTT16=
PLAYORDER=
